<svg version="1" xmlns="http://www.w3.org/2000/svg" width="933.333" height="933.333" viewBox="0 0 700.000000 700.000000"><path d="M320 26.1C219.4 35.4 129.1 90.6 75.1 175.8 50 215.3 34.3 258.9 27.4 308c-2.5 17.7-2.6 66.2-.1 83.9 8.4 59.2 29.3 109.9 64 155.4 50.1 65.8 122.5 109.4 204.2 123.1 90.2 15.2 182.1-7.7 253.7-63.1C613.1 557.9 657 484.7 670.4 405c17.6-104.8-15.6-209.9-89.9-284.5C526 65.7 455.9 33 378 26c-13.4-1.2-44.4-1.1-58 .1zm-53.8 146.7c30.5 7.4 52.2 25.8 62.8 53.5 13.1 33.9 8.4 80.4-11.3 110.5-8.9 13.8-20.4 22.8-36.7 29.1-15.1 5.8-19.3 6.3-58.2 6.8l-35.8.5v45.9c0 26.3.5 50.1 1.1 55.7 1.8 16.7 5.8 24.4 14.4 28.3 3.3 1.5 17.1 3.9 22.2 3.9 1 0 1.3 2.3 1.3 8.5v8.5H114v-16.8l7.3-1.2c12.9-2.2 17.9-5.4 21.6-14 4.5-10.5 4.6-12.4 4.6-145 0-134.1 0-134.9-4.9-145.6-3.7-8-10.3-11.7-24.3-13.9l-4.3-.7v-16.9l71.8.4c68.7.4 72.1.5 80.4 2.5zm254.3-.5c37.6 6.7 58.1 23.1 67.9 54.4 9.2 29.4 3.6 59.7-14.7 79-9.8 10.4-16.2 14.4-32.2 20.4-3 1.1-3 1.1 4.7 3.9 31.6 11.6 49.6 31.1 58 63 2.9 11.2 3.6 32.8 1.3 46.1-6.8 40.9-28.4 67.5-63.5 78.3-19.4 5.9-18.3 5.9-108.7 6.3l-83.3.4v-17l4.8-.6c7.3-1 15.4-3.5 18.5-5.7 3.2-2.3 6.4-8.2 8.4-15.3 2.8-10.3 3.5-45.6 3-155.5-.5-118.8-.5-119.4-6.4-130.3-3.5-6.3-8.7-9.4-19.7-11.4l-8.6-1.6v-16.8l80.8.4c67.9.4 82.1.7 89.7 2z"/><path d="M205.1 194.5c-7.5 1.7-12.3 5-15.4 10.8l-2.2 4.2-.3 70.3-.3 70.4 31.3-.4c28.9-.4 31.8-.6 37.8-2.6 29.2-9.7 46.1-50.3 39.5-94.7-5-33.4-20.3-52.7-45.7-57.9-9.7-2-35.6-2-44.7-.1zM454 192c-14.3 1.7-21.2 5-25.4 12.2-4.7 8.2-5 12.7-5.1 65.8v49.5l30.5-.1c16.8-.1 34.6-.7 39.5-1.3 35.8-4.6 53.4-18.5 58.2-45.6 1.8-10.6 1.3-26.8-1.1-36-5.7-21.3-19.8-35.7-40.7-41.5-13.2-3.6-39-5-55.9-3zM423.3 343.6c-1.1 2.9.4 125.5 1.7 131.9 1.5 7.9 5.4 14.8 10 18 10.6 7.4 32.6 10.2 57.6 7.4 34.7-3.8 54.9-18.3 64.5-46.1 4.7-13.8 6.2-25.1 5.6-42.8-.6-17.6-2.5-26.7-8.1-38.4-7.6-15.8-20.1-25-38.1-28.1-9.7-1.7-46.2-3.4-74.8-3.5-15.3 0-17.8.2-18.4 1.6z"/></svg>